<?xml version="1.0" encoding="utf-8"?>
<!-- Generator: Adobe Illustrator 22.1.0, SVG Export Plug-In . SVG Version: 6.00 Build 0)  -->
<svg version="1.1" id="Layer_1" xmlns="http://www.w3.org/2000/svg" xmlns:xlink="http://www.w3.org/1999/xlink" x="0px" y="0px"
	 viewBox="0 0 50 50" style="enable-background:new 0 0 50 50;" xml:space="preserve">
<style type="text/css">
	.st0{fill:#313048;}
</style>
<title>logo 8</title>
<desc>Created with Sketch.</desc>
<g>
	<path id="Fill-96" class="st0" d="M14.4,36l5.4-5.5h11L35,45.5L14.4,36z M6.8,17.1l10.1,1.3v10.8c0,0.1,0,0.2,0,0.3l-4.8,4.8
		L6.8,17.1z M16.8,15.5l-9-1.2l9-9.1V15.5z M36.6,8.4L28.3,17l-8.6-1.1V3.8L36.6,8.4z M19.7,27.7v-9l8,1l2.2,7.9H19.7z M43.4,27.7
		H32.9l-2.5-8.8l8.3-8.5L43.4,27.7z M37.4,43.8l-3.7-13.2H43L37.4,43.8z M46.6,28.8L40.8,7.3c-0.1-0.5-0.5-0.9-1-1L18.6,0.5
		c-0.4-0.1-0.9,0-1.2,0.2c0,0,0,0-0.1,0.1l-0.1-0.1L3.8,14.4l0,0c0,0-0.1,0.1-0.1,0.1c-0.3,0.4-0.4,0.9-0.3,1.3l6.4,20.8
		c0.1,0.4,0.4,0.7,0.8,0.9l26,11.9c0.2,0.1,0.4,0.1,0.6,0.1c0.3,0,0.7-0.1,0.9-0.3c0.2-0.1,0.3-0.3,0.4-0.5l0,0L46.3,30c0,0,0,0,0,0
		C46.6,29.6,46.7,29.2,46.6,28.8L46.6,28.8z"/>
</g>
</svg>
