<svg xmlns="http://www.w3.org/2000/svg" viewBox="0 0 128.1 25"><defs><style>.a{isolation:isolate}.b{fill:#43fe91}.c{fill:#293845}</style></defs><g class="a"><g class="a"><path class="b" d="M7.2 22.1a.8.8 0 01-.2-.5V6.2H1.8L1.4 6c-.2-.1-.2-.3-.2-.5V3.4a.7.7 0 01.1-.5l.5-.2h14.3l.5.2c.2.1.2.3.2.5v2.1c0 .2 0 .4-.2.5l-.5.2H11v15.4a.8.8 0 01-.2.5l-.5.2H7.7z"/></g><g class="a"><path class="b" d="M16 22.1a.5.5 0 01-.2-.4v-.2l6.8-18.1a1 1 0 011-.7h3.1a1 1 0 011 .7l6.7 18.1v.2c0 .2 0 .3-.1.4l-.4.2h-2.5a.8.8 0 01-.8-.5l-1.3-3.4H21l-1.3 3.4a.9.9 0 01-.8.5h-2.5zm6-7h6.3l-3.2-8.6z"/></g><g class="a"><path class="c" d="M37.3 22.1a.8.8 0 01-.2-.5V3.4a.8.8 0 01.2-.5l.5-.2h2.6a.6.6 0 01.5.2c.2.1.2.3.2.5v18.2c0 .2 0 .4-.2.5a.6.6 0 01-.5.2h-2.6z"/></g><g class="a"><path class="c" d="M45.7 22.1c-.2-.1-.2-.3-.2-.5V3.4c0-.2 0-.4.2-.5l.5-.2h2.6l.5.2a.8.8 0 01.2.5v15.5h8.8l.5.2a.6.6 0 01.2.5v2c0 .2 0 .4-.2.5l-.5.2H46.2z"/></g></g><path class="c" d="M63.1 21.9a2.9 2.9 0 01-.7-1.9v-.9a2.5 2.5 0 01.7-1.8 2.3 2.3 0 011.8-.7 2.9 2.9 0 011.4.3 2.7 2.7 0 01.8.7 1.3 1.3 0 01.3.8c0 .1 0 .1-.1.2h-.8c-.1 0-.1-.1-.1-.2s-.3-.6-.6-.7a1.1 1.1 0 00-.8-.2 1.2 1.2 0 00-1.1.4 1.7 1.7 0 00-.5 1.3v.8a1.9 1.9 0 00.5 1.3 1.2 1.2 0 001.1.4l.8-.2a1.7 1.7 0 00.6-.8v-.2h.6c.1 0 .2 0 .2.1h.1a1.6 1.6 0 01-.3.9l-.8.7-1.4.2a2.6 2.6 0 01-1.7-.5zm6.1 0a2.5 2.5 0 01-.7-1.9v-.9a2.4 2.4 0 012.5-2.5 2.4 2.4 0 012.6 2.5v.9a2.9 2.9 0 01-.7 1.9 2.7 2.7 0 01-1.9.6 2.4 2.4 0 01-1.8-.6zm2.9-.6a1.9 1.9 0 00.5-1.3v-.8a1.7 1.7 0 00-.5-1.3 1.3 1.3 0 00-1.1-.5 1.6 1.6 0 00-1.1.5 1.7 1.7 0 00-.4 1.3v.8a1.8 1.8 0 00.4 1.3 1.5 1.5 0 001.1.4 1.2 1.2 0 001.1-.4zm3 1.1c-.1-.1-.1-.1-.1-.2V17c0-.1 0-.2.1-.2s.1-.1.2-.1h.6a.3.3 0 01.1.2v.3a2.2 2.2 0 011.6-.7 1.8 1.8 0 011.7 1l.7-.7a2.3 2.3 0 011.1-.3 2 2 0 011.5.6 2.4 2.4 0 01.6 1.8v3.2c0 .1-.1.1-.1.2h-.8c-.1-.1-.1-.1-.1-.2v-3a1.7 1.7 0 00-.4-1.3 1.2 1.2 0 00-.9-.3 1 1 0 00-.9.4c-.3.2-.4.6-.4 1.2v3.1c0 .1 0 .1-.1.2h-.8c-.1-.1-.1-.1-.1-.2v-3.1a1.7 1.7 0 00-.4-1.3 1.5 1.5 0 00-1.8 0 1.7 1.7 0 00-.4 1.3v3.1c0 .1 0 .1-.1.2h-.8zm9.7 2.1v-7.7h.9v.7a2.3 2.3 0 011.9-.9 2.1 2.1 0 011.7.7 2.9 2.9 0 01.6 1.9v.7a2.9 2.9 0 01-.6 1.9 2.1 2.1 0 01-1.7.7 1.9 1.9 0 01-1.8-.8v2.8h-.9zm3.7-3.3a2.5 2.5 0 00.4-1.3v-.3q0-2.1-1.5-2.1a1.2 1.2 0 00-1.2.5 1.6 1.6 0 00-.4 1.2v.8a1.6 1.6 0 00.4 1.2 1.7 1.7 0 001.2.5 1.3 1.3 0 001.1-.5zm3.3.7a2.5 2.5 0 01-.7-1.9v-.9a2.4 2.4 0 012.5-2.5 2.4 2.4 0 012.6 2.5v.9a2.9 2.9 0 01-.7 1.9 2.7 2.7 0 01-1.9.6 2.4 2.4 0 01-1.8-.6zm2.9-.6a1.9 1.9 0 00.5-1.3v-.8a1.7 1.7 0 00-.5-1.3 1.3 1.3 0 00-1.1-.5 1.6 1.6 0 00-1.1.5 1.7 1.7 0 00-.4 1.3v.8a1.8 1.8 0 00.4 1.3 1.5 1.5 0 001.1.4 1.2 1.2 0 001.1-.4zm3 1.1c-.1-.1-.1-.1-.1-.2V17c0-.1 0-.2.1-.2a.1.1 0 01.1-.1h.5c.1 0 .2 0 .2.1s.1.1.1.2v.5l.7-.7 1.1-.2a2.1 2.1 0 011.7.7 3 3 0 01.5 1.8v3.3h-.9c0-.1-.1-.1-.1-.2v-3.1a1.6 1.6 0 00-.4-1.2 1.2 1.2 0 00-1.1-.4 1.5 1.5 0 00-1.1.4 1.6 1.6 0 00-.4 1.2v3.1c0 .1 0 .1-.1.2h-.8zm7-.6a2.7 2.7 0 01-.7-1.9v-.7a2.9 2.9 0 01.7-1.9 2.4 2.4 0 011.8-.7 2.6 2.6 0 011.9.8 3.3 3.3 0 01.6 2.1v.2h-4a1.6 1.6 0 00.4 1.2 1.2 1.2 0 001.1.5 1.1 1.1 0 00.8-.2.7.7 0 00.5-.4h.2c0-.1.1-.1.2-.1h.4c.1 0 .2 0 .2.1a.1.1 0 01.1.1.9.9 0 01-.3.6l-.8.6a2.7 2.7 0 01-1.3.2 2.4 2.4 0 01-1.8-.5zm3.3-2.6a1.6 1.6 0 00-.4-1.2 1.5 1.5 0 00-2.2 0 1.6 1.6 0 00-.4 1.2h3zm2.5 3.2c-.1-.1-.1-.1-.1-.2V17c0-.1 0-.2.1-.2a.1.1 0 01.1-.1h.5c.1 0 .2 0 .2.1a.3.3 0 01.1.2v.5a2.3 2.3 0 01.7-.7l1.1-.2a2.1 2.1 0 011.7.7 3 3 0 01.5 1.8v3.3h-.9c-.1-.1-.1-.1-.1-.2v-3.1a1.6 1.6 0 00-.4-1.2 1.2 1.2 0 00-1.1-.4 1.5 1.5 0 00-1.1.4 1.6 1.6 0 00-.4 1.2v3.1c0 .1 0 .1-.1.2h-.8zm6.9-1.9v-2.9h-1V17a.3.3 0 01.1-.2c0-.1.1-.1.2-.1h.8v-2h.9v2h1.6v.7h-1.6v2.8a2 2 0 00.2.9.6.6 0 00.6.3h.9v.8h-.9c-1.2.2-1.8-.4-1.8-1.7zm4.5 1.8a2.8 2.8 0 01-.8-.6 1.7 1.7 0 01-.2-.5V21h.9a1.2 1.2 0 00.5.5l.9.2a1.2 1.2 0 00.9-.3.5.5 0 00.4-.6.5.5 0 00-.2-.4.5.5 0 00-.5-.3l-1-.3a4.8 4.8 0 01-1.4-.6 1.8 1.8 0 01-.4-1.1 1.1 1.1 0 01.3-.7 1.6 1.6 0 01.7-.7l1.1-.2 1.2.2a2.2 2.2 0 01.7.6.9.9 0 01.3.5c0 .1 0 .1-.1.2h-.8l-.3-.3a.5.5 0 00-.4-.2h-.6l-.8.2a.9.9 0 00-.3.6c0 .2.1.3.1.4l.5.3 1 .3a2.6 2.6 0 011.5.6 1.4 1.4 0 01.4 1.1 1.9 1.9 0 01-.2.8 1.5 1.5 0 01-.9.6 2.2 2.2 0 01-1.2.2 2.5 2.5 0 01-1.3-.3z"/></svg>